<?xml version="1.0" encoding="UTF-8"?>
<svg id="a" data-name="Layer 1" xmlns="http://www.w3.org/2000/svg" width="318.098" height="326.18" viewBox="0 0 318.098 326.18">
  <path d="M91.204,25.162c.65-.111,1.699-.727.874-1.235-.481-.295-4.703-.068-5.716-.101-15.716-.514-31.113-.236-46.967-.071-1.144.012-2.647-.037-3.767.053-.853.069-1.665.992.961,1.047,16.586.236,31.807-.116,48.395.116,1.381.019,2.779.161,4.171.25.619.04,1.444.044,2.049-.059M31.639,29.396c-1.813,1.037-2.353.049-2.177-1.749.114-1.165.779-2.94.925-4.192.315-2.691-.636-5.234-.852-7.854-.059-.714.551-1.358,1.252-1.216,1.188.24,2.163,1.451,3.309,2.109.36.207.772.3,1.187.301,7.868.021,15.763.129,23.637.056,5.834-.055,11.826-.073,17.686-.233,4.398-.12,10.161.195,14.424-.236,2.222-.225,4.141-2.551,5.416,1.937.407,1.432.509,2.94.397,4.424-.484,6.411-2.101,6.201-5.196,5.095-.565-.202-1.166-.303-1.766-.298-18.262.164-36.455-.358-54.715-.239-1.222-.009-1.852.944-2.685,1.512,0,0-.62.456-.842.583Z" fill="#a7e5ee"/>
  <path d="M19.244,40.377c-.111-.65-.727-1.699-1.235-.874-.295.481-.068,4.703-.101,5.716-.514,15.716-.236,31.113-.071,46.967.012,1.144-.037,2.647.053,3.767.069.853.992,1.665,1.047-.961.236-16.586-.116-31.807.116-48.395.019-1.381.161-2.779.25-4.171.04-.619.044-1.444-.059-2.049M23.478,99.942c1.037,1.813.049,2.353-1.749,2.177-1.165-.114-2.94-.779-4.192-.925-2.691-.315-5.234.636-7.854.852-.714.059-1.358-.551-1.216-1.252.24-1.188,1.451-2.163,2.109-3.309.207-.36.3-.772.301-1.187.021-7.868.129-15.763.056-23.637-.055-5.834-.073-11.826-.233-17.686-.12-4.398.195-10.161-.236-14.424-.225-2.222-2.551-4.141,1.937-5.416,1.432-.407,2.94-.509,4.424-.397,6.411.484,6.201,2.101,5.095,5.196-.202.565-.303,1.166-.298,1.766.164,18.262-.358,36.455-.239,54.715-.009,1.222.944,1.852,1.512,2.685,0,0,.456.62.583.842Z" fill="#a7e5ee"/>
  <path d="M227.563,25.162c.605.103,1.43.099,2.049.059,1.392-.089,2.79-.231,4.171-.25,16.588-.232,31.809.12,48.395-.116,2.626-.055,1.814-.978.961-1.047-1.12-.09-2.622-.042-3.767-.053-15.855-.165-31.251-.443-46.967.071-1.013.033-5.235-.194-5.716.101-.825.508.224,1.124.874,1.235M286.286,28.813c-.833-.568-1.463-1.521-2.685-1.512-18.26-.119-36.453.403-54.715.239-.6-.005-1.201.096-1.766.298-3.095,1.106-4.713,1.316-5.196-5.095-.112-1.485-.01-2.992.397-4.424,1.275-4.487,3.194-2.162,5.416-1.937,4.263.431,10.026.116,14.424.236,5.86.16,11.852.178,17.686.233,7.874.073,15.769-.035,23.637-.056.415-.001.828-.094,1.187-.301,1.146-.658,2.121-1.869,3.309-2.109.702-.142,1.311.502,1.252,1.216-.216,2.619-1.167,5.162-.852,7.854.146,1.252.811,3.027.925,4.192.176,1.798-.364,2.786-2.177,1.749-.222-.127-.842-.583-.842-.583Z" fill="#a7e5ee"/>
  <path d="M299.523,40.377c-.103.605-.099,1.43-.059,2.049.089,1.392.231,2.79.25,4.171.232,16.588-.12,31.809.116,48.395.055,2.626.978,1.814,1.047.961.09-1.12.042-2.622.053-3.767.165-15.855.443-31.251-.071-46.967-.033-1.013.194-5.235-.101-5.716-.508-.825-1.124.224-1.235.874M295.872,99.1c.568-.833,1.521-1.463,1.512-2.685.119-18.26-.403-36.453-.239-54.715.005-.6-.096-1.201-.298-1.766-1.106-3.095-1.316-4.713,5.095-5.196,1.485-.112,2.992-.01,4.424.397,4.487,1.275,2.162,3.194,1.937,5.416-.431,4.263-.116,10.026-.236,14.424-.16,5.86-.178,11.852-.233,17.686-.073,7.874.035,15.769.056,23.637.001.415.094.828.301,1.187.658,1.146,1.869,2.121,2.109,3.309.142.702-.502,1.311-1.216,1.252-2.619-.216-5.162-1.167-7.854-.852-1.252.146-3.027.811-4.192.925-1.798.176-2.786-.364-1.749-2.177.127-.222.583-.842.583-.842Z" fill="#a7e5ee"/>
  <path d="M91.204,306.206c-.605-.103-1.43-.099-2.049-.059-1.392.089-2.79.231-4.171.25-16.588.232-31.809-.12-48.395.116-2.626.055-1.814.978-.961,1.047,1.12.09,2.622.042,3.767.053,15.855.165,31.251.443,46.967-.071,1.013-.033,5.235.194,5.716-.101.825-.508-.224-1.124-.874-1.235M32.481,302.555c.833.568,1.463,1.521,2.685,1.512,18.26.119,36.453-.403,54.715-.239.6.005,1.201-.096,1.766-.298,3.095-1.106,4.713-1.316,5.196,5.095.112,1.485.01,2.992-.397,4.424-1.275,4.487-3.194,2.162-5.416,1.937-4.263-.431-10.026-.116-14.424-.236-5.86-.16-11.852-.178-17.686-.233-7.874-.073-15.769.035-23.637.056-.415.001-.828.094-1.187.301-1.146.658-2.121,1.869-3.309,2.109-.702.142-1.311-.502-1.252-1.216.216-2.619,1.167-5.162.852-7.854-.146-1.252-.811-3.027-.925-4.192-.176-1.798.364-2.786,2.177-1.749.222.127.842.583.842.583Z" fill="#a7e5ee"/>
  <path d="M19.244,290.991c.103-.605.099-1.43.059-2.049-.089-1.392-.231-2.79-.25-4.171-.232-16.588.12-31.809-.116-48.395-.055-2.626-.978-1.814-1.047-.961-.09,1.12-.042,2.622-.053,3.767-.165,15.855-.443,31.251.071,46.967.033,1.013-.194,5.235.101,5.716.508.825,1.124-.224,1.235-.874M22.895,232.268c-.568.833-1.521,1.463-1.512,2.685-.119,18.26.403,36.453.239,54.715-.005.6.096,1.201.298,1.766,1.106,3.095,1.316,4.713-5.095,5.196-1.485.112-2.992.01-4.424-.397-4.487-1.275-2.162-3.194-1.937-5.416.431-4.263.116-10.026.236-14.424.16-5.86.178-11.852.233-17.686.073-7.874-.035-15.769-.056-23.637-.001-.415-.094-.828-.301-1.187-.658-1.146-1.869-2.121-2.109-3.309-.142-.702.502-1.311,1.216-1.252,2.619.216,5.162,1.167,7.854.852,1.252-.146,3.027-.811,4.192-.925,1.798-.176,2.786.364,1.749,2.177-.127.222-.583.842-.583.842Z" fill="#a7e5ee"/>
  <path d="M227.563,306.206c-.65.111-1.699.727-.874,1.235.481.295,4.703.068,5.716.101,15.716.514,31.113.236,46.967.071,1.144-.012,2.647.037,3.767-.053.853-.069,1.665-.992-.961-1.047-16.586-.236-31.807.116-48.395-.116-1.381-.019-2.779-.161-4.171-.25-.619-.04-1.444-.044-2.049.059M287.128,301.972c1.813-1.037,2.353-.049,2.177,1.749-.114,1.165-.779,2.94-.925,4.192-.315,2.691.636,5.234.852,7.854.059.714-.551,1.358-1.252,1.216-1.188-.24-2.163-1.451-3.309-2.109-.36-.207-.772-.3-1.187-.301-7.868-.021-15.763-.129-23.637-.056-5.834.055-11.826.073-17.686.233-4.398.12-10.161-.195-14.424.236-2.222.225-4.141,2.551-5.416-1.937-.407-1.432-.509-2.94-.397-4.424.484-6.411,2.101-6.201,5.196-5.095.565.202,1.166.303,1.766.298,18.262-.164,36.455.358,54.715.239,1.222.009,1.852-.944,2.685-1.512,0,0,.62-.456.842-.583Z" fill="#a7e5ee"/>
  <path d="M299.523,290.991c.111.65.727,1.699,1.235.874.295-.481.068-4.703.101-5.716.514-15.716.236-31.113.071-46.967-.012-1.144.037-2.647-.053-3.767-.069-.853-.992-1.665-1.047.961-.236,16.586.116,31.807-.116,48.395-.019,1.381-.161,2.779-.25,4.171-.04.619-.044,1.444.059,2.049M295.289,231.426c-1.037-1.813-.049-2.353,1.749-2.177,1.165.114,2.94.779,4.192.925,2.691.315,5.234-.636,7.854-.852.714-.059,1.358.551,1.216,1.252-.24,1.188-1.451,2.163-2.109,3.309-.207.36-.3.772-.301,1.187-.021,7.868-.129,15.763-.056,23.637.055,5.834.073,11.826.233,17.686.12,4.398-.195,10.161.236,14.424.225,2.222,2.551,4.141-1.937,5.416-1.432.407-2.94.509-4.424.397-6.411-.484-6.201-2.101-5.095-5.196.202-.565.303-1.166.298-1.766-.164-18.262.358-36.455.239-54.715.009-1.222-.944-1.852-1.512-2.685,0,0-.456-.62-.583-.842Z" fill="#a7e5ee"/>
  <path d="M89.4,163.168c4.858-1.675,10.553-5.36,10.553-12.647,0-9.8-9.381-11.81-22.195-11.81-6.198,0-13.401.67-18.091,1.173v48.663c5.025.335,13.82.838,18.259.838,16.751,0,23.703-4.858,23.703-13.736,0-8.208-6.617-11.307-12.228-12.48ZM78.427,142.312c11.14,0,17.673,1.591,17.673,8.627,0,7.957-10.386,10.805-18.929,10.805-3.518,0-10.051,0-13.736-.168v-18.426c3.685-.419,9.548-.838,14.992-.838ZM77.506,165.345c11.14,0,20.353,2.178,20.353,10.135,0,6.617-4.942,10.302-19.432,10.302-3.853,0-11.056-.251-14.992-.586v-19.767c4.355-.084,10.386-.084,14.071-.084ZM167.712,188.714l-20.437-49.081h-9.8l-19.18,49.081h4.104l3.518-8.962c3.35,1.591,9.381,3.602,16.333,3.602,7.287,0,13.82-2.01,17.673-3.769l3.685,9.129h4.104ZM158.499,176.066c-3.853,1.843-8.878,3.685-16.249,3.685-5.863,0-11.14-1.759-15.076-3.518l12.982-33h4.607l13.736,32.833ZM222.824,179.417h2.261l26.048-34.005v43.302h3.685v-49.081h-3.769l-26.97,35.01-26.802-35.01h-4.355v49.081h3.769v-43.888l26.132,34.591Z" fill="#fd5d9d"/>
  <path d="M81.412,218.679v2.123h5.491v5.067c-1.642.991-3.255,1.415-5.293,1.415-4.84,0-8.662-3.793-8.662-8.69,0-4.586,3.085-8.69,8.407-8.69,2.264,0,4.642.877,6.539,2.264l1.189-1.783c-2.18-1.529-4.331-2.519-7.756-2.519-5.35,0-10.841,4.218-10.841,10.728s5.35,10.7,11.096,10.7c3.085,0,5.491-.877,7.586-2.434v-8.18h-7.756ZM115.238,218.594c0-6.227-4.642-10.728-10.247-10.728s-10.445,4.501-10.445,10.728,4.642,10.7,10.247,10.7,10.445-4.472,10.445-10.7ZM112.775,218.594c0,4.897-3.284,8.69-7.869,8.69-4.614,0-7.897-3.793-7.897-8.69s3.284-8.69,7.897-8.69c4.586,0,7.869,3.793,7.869,8.69ZM141.166,218.594c0-6.227-4.642-10.728-10.247-10.728s-10.445,4.501-10.445,10.728,4.642,10.7,10.247,10.7,10.445-4.472,10.445-10.7ZM138.704,218.594c0,4.897-3.284,8.69-7.869,8.69-4.614,0-7.897-3.793-7.897-8.69s3.284-8.69,7.897-8.69c4.586,0,7.869,3.793,7.869,8.69ZM164.377,218.396c0-5.322-4.076-10.332-11.86-10.332-2.095,0-3.821.142-5.406.34v20.38c1.613.17,3.51.34,5.605.34,7.784,0,11.662-5.152,11.662-10.728ZM161.915,218.396c0,4.925-2.802,8.775-8.916,8.775-1.642,0-2.746-.057-3.623-.226v-16.729c.736-.142,2.095-.226,3.34-.226,6.029,0,9.199,3.595,9.199,8.407ZM193.363,210.244v-2.038h-16.106v2.038h6.935v18.71h2.264v-18.71h6.907ZM200.864,228.954v-20.748h-2.264v20.748h2.264ZM227.613,228.954l-.793-21.088-.453-.057-8.775,15.625-9.001-15.625-.425.057-.793,21.088h2.293l.255-14.691,7.416,12.568h.311l7.36-12.54.311,14.663h2.293ZM246.125,228.954v-2.038h-9.879v-7.473h8.888v-2.038h-8.888v-7.161h9.879v-2.038h-12.143v20.748h12.143Z" fill="#a7e5ee"/>
  <path d="M71.243,253.727c.752-2.037,1.258-3.486,1.52-4.347.251-.861.376-1.384.376-1.569,0-.098-.016-.169-.049-.212-.033-.044-.082-.065-.147-.065-.24,0-.708.49-1.405,1.471-.142.196-.245.294-.31.294-.109,0-.163-.038-.163-.114,0-.131.289-.545.866-1.242.567-.708,1.062-1.062,1.487-1.062.229,0,.403.065.523.196.109.12.163.305.163.556,0,.392-.191,1.138-.572,2.239.076-.109.234-.37.474-.784.904-1.558,1.732-2.337,2.484-2.337.349,0,.599.109.752.327.153.218.229.474.229.768,0,.305-.136.98-.409,2.026.686-1.296,1.258-2.141,1.716-2.533.458-.392.888-.588,1.291-.588.283,0,.517.087.703.261.174.185.261.414.261.686,0,.545-.403,1.95-1.209,4.216-.229.61-.343.975-.343,1.095,0,.076.022.131.065.163.033.044.082.065.147.065.131,0,.409-.18.833-.539.425-.349.746-.665.964-.948.109-.153.212-.229.31-.229.076,0,.114.033.114.098,0,.196-.349.61-1.046,1.242-.708.621-1.302.931-1.781.931-.174,0-.316-.06-.425-.18-.12-.131-.18-.294-.18-.49,0-.283.12-.746.36-1.389.784-2.135,1.177-3.497,1.177-4.085,0-.142-.022-.251-.065-.327-.054-.076-.131-.114-.229-.114-.49,0-1.1.626-1.83,1.879-.73,1.242-1.427,2.789-2.092,4.641-.185.022-.381.033-.588.033-.131,0-.256-.011-.376-.033,1.089-3.018,1.634-4.853,1.634-5.507,0-.305-.033-.534-.098-.686-.076-.153-.185-.229-.327-.229-.381,0-.937.61-1.667,1.83-.73,1.209-1.433,2.74-2.108,4.592-.142.022-.251.033-.327.033-.033,0-.093-.005-.18-.016-.185-.011-.36-.016-.523-.016ZM88.941,246.929c-.142.327-.441,1.209-.899,2.647l-.703,2.222c-.153.403-.229.752-.229,1.046,0,.174.093.261.278.261.12,0,.3-.087.539-.261.229-.163.458-.381.686-.654.142-.174.245-.261.31-.261.087,0,.131.044.131.131,0,.142-.289.463-.866.964-.577.49-1.095.735-1.552.735-.305,0-.458-.212-.458-.637,0-.294.016-.665.049-1.111-.817,1.111-1.678,1.667-2.582,1.667-.392,0-.681-.142-.866-.425-.185-.283-.278-.605-.278-.964,0-1.024.512-2.201,1.536-3.53s1.994-1.994,2.909-1.994c.24,0,.43.082.572.245.142.163.229.414.261.752.098-.251.251-.572.458-.964.163.022.327.049.49.082.109.022.18.038.212.049ZM86.489,247.19c-.305,0-.681.223-1.128.67-.447.447-.844,1.1-1.193,1.961-.338.861-.507,1.58-.507,2.157,0,.338.06.594.18.768.12.174.3.261.539.261.621,0,1.242-.567,1.863-1.7.632-1.122.948-2.141.948-3.056,0-.294-.065-.545-.196-.752s-.3-.31-.507-.31ZM92.193,249.331c.784-1.002,1.405-1.694,1.863-2.075.458-.381.861-.572,1.209-.572.272,0,.49.087.654.261.163.163.245.37.245.621,0,.447-.267,1.422-.801,2.925-.49,1.384-.735,2.212-.735,2.484,0,.174.076.261.229.261s.381-.136.686-.409c.294-.272.572-.583.833-.931.087-.12.163-.18.229-.18.087,0,.131.06.131.18,0,.163-.283.523-.85,1.079-.567.556-1.106.833-1.618.833-.512,0-.768-.191-.768-.572,0-.272.076-.616.229-1.03.261-.654.556-1.493.882-2.517.327-1.013.49-1.672.49-1.977,0-.12-.022-.207-.065-.261-.044-.065-.109-.098-.196-.098-.251,0-.643.234-1.177.703-.534.468-.975,1.024-1.324,1.667-.349.632-.703,1.52-1.062,2.664-.229.708-.365,1.117-.409,1.226s-.098.163-.163.163c-.153,0-.338-.027-.556-.082-.218-.054-.327-.103-.327-.147,0-.054.011-.114.033-.18.054-.153.452-1.362,1.193-3.628l1.128-3.546.588-2.075c.076-.196.114-.36.114-.49,0-.174-.294-.316-.882-.425-.196-.044-.294-.114-.294-.212s.103-.147.31-.147h1.389c.458.011.703.022.735.033.033.022.049.049.049.082l-.033.098c-.022.044-.038.103-.049.18-.142.632-.779,2.664-1.912,6.095ZM101.131,242.86c.174,0,.321.06.441.18.12.12.18.267.18.441s-.06.327-.18.458c-.12.12-.267.18-.441.18s-.321-.06-.441-.18c-.131-.131-.196-.283-.196-.458,0-.174.065-.321.196-.441.12-.12.267-.18.441-.18ZM95.167,257.943c-.381,0-.708-.109-.98-.327-.272-.218-.409-.512-.409-.882,0-.229.071-.419.212-.572.142-.142.321-.212.539-.212.392,0,.588.18.588.539,0,.142-.065.3-.196.474-.142.174-.212.305-.212.392,0,.098.044.169.131.212.087.054.218.082.392.082.654,0,1.193-.381,1.618-1.144.414-.773,1.095-2.838,2.043-6.193l.588-2.075c.098-.294.147-.55.147-.768,0-.098-.022-.169-.065-.212-.044-.044-.109-.065-.196-.065-.283,0-.665.305-1.144.915-.251.305-.409.458-.474.458-.098,0-.147-.044-.147-.131s.251-.403.752-.948c.501-.556.997-.833,1.487-.833.218,0,.398.076.539.229.153.142.229.305.229.49,0,.425-.338,1.749-1.013,3.971-.675,2.222-1.149,3.66-1.422,4.314-.261.654-.665,1.198-1.209,1.634-.556.436-1.155.654-1.798.654ZM105.119,246.798c.708,0,1.264.272,1.667.817.403.545.605,1.187.605,1.928,0,1.035-.365,1.999-1.095,2.892-.73.904-1.596,1.356-2.598,1.356-.752,0-1.291-.278-1.618-.833-.327-.545-.49-1.117-.49-1.716,0-.795.202-1.563.605-2.304.414-.741.893-1.28,1.438-1.618.545-.349,1.04-.523,1.487-.523ZM105.266,247.141c-.294,0-.621.169-.98.507-.36.349-.714.975-1.062,1.879-.349.893-.523,1.732-.523,2.517,0,.381.087.714.261.997.174.272.414.409.719.409.327,0,.686-.196,1.079-.588.392-.403.752-1.024,1.079-1.863.338-.828.507-1.618.507-2.37,0-.501-.093-.877-.278-1.128-.174-.24-.441-.36-.801-.36ZM111.051,249.609c.567-.948,1.095-1.656,1.585-2.124.501-.468.964-.703,1.389-.703.251,0,.441.087.572.261.131.185.196.398.196.637,0,.305-.044.621-.131.948-.087.316-.305.964-.654,1.945-.479,1.318-.719,2.092-.719,2.32,0,.174.082.261.245.261.131,0,.343-.12.637-.36.294-.229.507-.458.637-.686.142-.24.256-.36.343-.36.098,0,.147.054.147.163,0,.218-.272.588-.817,1.111-.556.534-1.079.801-1.569.801s-.735-.207-.735-.621c0-.425.387-1.656,1.16-3.693.305-.795.458-1.389.458-1.781,0-.12-.022-.212-.065-.278-.044-.054-.114-.082-.212-.082-.153,0-.452.202-.899.605-.436.403-.931,1.128-1.487,2.173-.567,1.035-1.024,1.983-1.373,2.843-.218.545-.365.817-.441.817-.523,0-.784-.071-.784-.212l.033-.082,1.34-3.906c.36-.948.539-1.607.539-1.977,0-.153-.076-.229-.229-.229-.131,0-.349.131-.654.392-.294.261-.528.507-.703.735-.142.185-.251.278-.327.278-.087,0-.131-.044-.131-.131,0-.163.289-.523.866-1.079.577-.556,1.133-.833,1.667-.833.174,0,.305.06.392.18.087.131.131.261.131.392,0,.207-.136.964-.409,2.271ZM121.95,247.893c.142.251.212.534.212.85,0,.479-.114.931-.343,1.356-.229.436-.545.801-.948,1.095-.392.283-.757.468-1.095.556s-.757.136-1.258.147c-.937.011-1.405.158-1.405.441,0,.327.485.577,1.454.752.97.163,1.656.327,2.059.49.403.153.714.376.931.67.229.305.343.632.343.98,0,.675-.376,1.302-1.128,1.879-.752.567-1.721.85-2.909.85-.926,0-1.661-.169-2.206-.507-.534-.338-.801-.741-.801-1.209,0-.414.229-.85.686-1.307.458-.447,1.04-.806,1.749-1.079-.643-.24-.964-.594-.964-1.062,0-.272.12-.517.36-.735s.616-.37,1.128-.458c-.294-.251-.517-.517-.67-.801-.153-.294-.229-.605-.229-.931,0-.839.316-1.569.948-2.19s1.378-.931,2.239-.931c.36,0,.675.071.948.212.272.142.512.354.719.637.523-.588.991-.882,1.405-.882.251,0,.468.082.654.245.174.153.261.332.261.539,0,.142-.044.272-.131.392-.098.131-.229.196-.392.196-.185,0-.365-.114-.539-.343-.174-.207-.327-.31-.458-.31-.142,0-.349.153-.621.458ZM119.989,247.076c-.534,0-1.002.321-1.405.964-.403.654-.605,1.394-.605,2.222,0,.403.103.719.31.948.207.218.447.327.719.327.556,0,1.03-.349,1.422-1.046.381-.697.572-1.384.572-2.059,0-.425-.093-.757-.278-.997-.185-.24-.43-.36-.735-.36ZM117.832,254.087c-.675.12-1.177.392-1.503.817-.327.436-.49.866-.49,1.291s.191.768.572,1.03c.381.272.921.409,1.618.409.828,0,1.52-.202,2.075-.605s.833-.855.833-1.356c0-.392-.174-.697-.523-.915-.36-.218-1.133-.425-2.32-.621l-.261-.049ZM130.807,247.272c-.033.153-.169.577-.409,1.275-.795,2.244-1.193,3.606-1.193,4.085,0,.316.12.474.36.474.392,0,.98-.452,1.765-1.356.098-.12.185-.18.261-.18.098,0,.147.038.147.114,0,.142-.332.528-.997,1.16-.654.632-1.335.948-2.043.948-.24,0-.425-.071-.556-.212-.12-.142-.18-.289-.18-.441,0-.36.114-.85.343-1.471.022-.044.507-1.487,1.454-4.33l-.735-.016-.539.016c-.076,0-.114-.038-.114-.114,0-.153.016-.24.049-.261.033-.022.18-.044.441-.065.251-.022.599-.033,1.046-.033.131-.447.3-.948.507-1.503l.31-.915c.011-.033.038-.049.082-.049.196,0,.387.022.572.065.185.054.278.109.278.163l-.033.065-.719,2.206.98.033c.327.011.496.022.507.033.011,0,.016.016.016.049,0,.24-.038.36-.114.36l-.588-.049-.899-.049ZM136.02,246.798c.697,0,1.253.272,1.667.817.403.545.605,1.187.605,1.928,0,1.035-.365,1.999-1.095,2.892-.73.904-1.601,1.356-2.615,1.356-.741,0-1.28-.278-1.618-.833-.327-.545-.49-1.117-.49-1.716,0-.795.207-1.563.621-2.304.403-.741.877-1.28,1.422-1.618.545-.349,1.046-.523,1.503-.523ZM136.167,247.141c-.305,0-.637.169-.997.507-.349.349-.697.975-1.046,1.879-.349.893-.523,1.732-.523,2.517,0,.381.087.714.261.997.174.272.409.409.703.409.338,0,.703-.196,1.095-.588.392-.403.752-1.024,1.079-1.863.327-.828.49-1.618.49-2.37,0-.501-.087-.877-.261-1.128-.174-.24-.441-.36-.801-.36ZM144.796,247.893c.142.251.212.534.212.85,0,.479-.114.931-.343,1.356-.229.436-.539.801-.931,1.095-.403.283-.774.468-1.111.556s-.752.136-1.242.147c-.937.011-1.405.158-1.405.441,0,.327.479.577,1.438.752.97.163,1.656.327,2.059.49.403.153.719.376.948.67.218.305.327.632.327.98,0,.675-.376,1.302-1.128,1.879-.752.567-1.716.85-2.892.85-.937,0-1.672-.169-2.206-.507-.545-.338-.817-.741-.817-1.209,0-.414.229-.85.686-1.307.458-.447,1.04-.806,1.749-1.079-.643-.24-.964-.594-.964-1.062,0-.272.12-.517.36-.735.251-.218.626-.37,1.128-.458-.294-.251-.517-.517-.67-.801-.153-.294-.229-.605-.229-.931,0-.839.316-1.569.948-2.19.632-.621,1.378-.931,2.239-.931.36,0,.675.071.948.212.283.142.523.354.719.637.534-.588,1.002-.882,1.405-.882.251,0,.468.082.654.245.174.153.261.332.261.539,0,.142-.044.272-.131.392-.098.131-.223.196-.376.196-.185,0-.37-.114-.556-.343-.174-.207-.327-.31-.458-.31-.142,0-.349.153-.621.458ZM142.835,247.076c-.523,0-.986.321-1.389.964-.414.654-.621,1.394-.621,2.222,0,.403.103.719.31.948.218.218.458.327.719.327.567,0,1.04-.349,1.422-1.046.381-.697.572-1.384.572-2.059,0-.425-.093-.757-.278-.997-.185-.24-.43-.36-.735-.36ZM140.678,254.087c-.675.12-1.177.392-1.503.817-.327.436-.49.866-.49,1.291s.191.768.572,1.03c.381.272.921.409,1.618.409.839,0,1.536-.202,2.092-.605.556-.403.833-.855.833-1.356,0-.392-.18-.697-.539-.915-.36-.218-1.128-.425-2.304-.621l-.278-.049ZM148.244,250.802c-.174.73-.261,1.286-.261,1.667,0,.229.065.436.196.621.131.174.31.261.539.261.316,0,.654-.131,1.013-.392.36-.261.659-.583.899-.964.12-.185.234-.278.343-.278.098,0,.147.049.147.147,0,.261-.294.648-.882,1.16-.588.501-1.204.752-1.847.752-.49,0-.872-.18-1.144-.539-.283-.36-.425-.773-.425-1.242,0-1.013.463-2.141,1.389-3.383.926-1.231,1.825-1.847,2.696-1.847.305,0,.561.109.768.327.207.218.31.458.31.719,0,.523-.289,1.057-.866,1.601-.577.534-1.536.997-2.876,1.389ZM148.358,250.442c.806-.36,1.482-.812,2.026-1.356.534-.556.801-1.062.801-1.52,0-.098-.038-.196-.114-.294s-.18-.147-.31-.147c-.349,0-.746.229-1.193.686-.447.468-.85,1.345-1.209,2.631ZM155.499,247.272c-.044.153-.185.577-.425,1.275-.795,2.244-1.193,3.606-1.193,4.085,0,.316.12.474.36.474.403,0,.991-.452,1.765-1.356.098-.12.185-.18.261-.18.098,0,.147.038.147.114,0,.142-.332.528-.997,1.16-.654.632-1.335.948-2.043.948-.24,0-.419-.071-.539-.212-.131-.142-.196-.289-.196-.441,0-.36.114-.85.343-1.471.022-.044.512-1.487,1.471-4.33l-.752-.016-.523.016c-.076,0-.114-.038-.114-.114,0-.153.016-.24.049-.261s.174-.044.425-.065c.251-.022.599-.033,1.046-.033.142-.447.31-.948.507-1.503l.31-.915c.011-.033.044-.049.098-.049.185,0,.37.022.556.065.185.054.278.109.278.163l-.033.065-.719,2.206.98.033c.327.011.496.022.507.033.011,0,.016.016.016.049,0,.24-.038.36-.114.36l-.588-.049-.882-.049ZM159.323,249.331c.795-1.002,1.422-1.694,1.879-2.075.447-.381.85-.572,1.209-.572.272,0,.49.087.654.261.163.163.245.37.245.621,0,.447-.267,1.422-.801,2.925-.49,1.384-.735,2.212-.735,2.484,0,.174.076.261.229.261.142,0,.365-.136.67-.409.305-.272.588-.583.85-.931.076-.12.147-.18.212-.18.098,0,.147.06.147.18,0,.163-.283.523-.85,1.079-.567.556-1.106.833-1.618.833-.523,0-.784-.191-.784-.572,0-.272.082-.616.245-1.03.261-.654.556-1.493.882-2.517.316-1.013.474-1.672.474-1.977,0-.12-.016-.207-.049-.261-.044-.065-.114-.098-.212-.098-.24,0-.626.234-1.16.703-.545.468-.991,1.024-1.34,1.667-.349.632-.697,1.52-1.046,2.664-.229.708-.365,1.117-.409,1.226-.044.109-.098.163-.163.163-.163,0-.354-.027-.572-.082-.218-.054-.327-.103-.327-.147,0-.054.016-.114.049-.18.054-.153.447-1.362,1.177-3.628l1.144-3.546.588-2.075c.065-.196.098-.36.098-.49,0-.174-.289-.316-.866-.425-.207-.044-.31-.114-.31-.212s.109-.147.327-.147h1.373c.458.011.703.022.735.033.033.022.049.049.049.082l-.033.098c-.011.044-.027.103-.049.18-.131.632-.768,2.664-1.912,6.095ZM165.942,250.802c-.174.73-.261,1.286-.261,1.667,0,.229.065.436.196.621.131.174.31.261.539.261.316,0,.654-.131,1.013-.392.36-.261.659-.583.899-.964.12-.185.234-.278.343-.278.098,0,.147.049.147.147,0,.261-.294.648-.882,1.16-.588.501-1.204.752-1.847.752-.49,0-.872-.18-1.144-.539-.283-.36-.425-.773-.425-1.242,0-1.013.463-2.141,1.389-3.383.926-1.231,1.825-1.847,2.696-1.847.305,0,.561.109.768.327.207.218.31.458.31.719,0,.523-.289,1.057-.866,1.601-.577.534-1.536.997-2.876,1.389ZM166.056,250.442c.806-.36,1.482-.812,2.026-1.356.534-.556.801-1.062.801-1.52,0-.098-.038-.196-.114-.294-.076-.098-.18-.147-.31-.147-.349,0-.746.229-1.193.686-.447.468-.85,1.345-1.209,2.631ZM173.001,249.037c.458-.752.888-1.313,1.291-1.683.392-.37.763-.556,1.111-.556.24,0,.436.065.588.196.163.142.245.327.245.556,0,.185-.065.365-.196.539-.12.163-.278.245-.474.245-.349,0-.561-.153-.637-.458-.054-.207-.131-.31-.229-.31-.163,0-.436.261-.817.784-.392.523-.784,1.182-1.177,1.977l-1.128,3.448h-.98c.022-.12.18-.616.474-1.487.773-2.898,1.16-4.488,1.16-4.772,0-.098-.044-.147-.131-.147-.098,0-.289.136-.572.409s-.528.561-.735.866c-.163.24-.289.36-.376.36-.098,0-.147-.044-.147-.131,0-.131.278-.512.833-1.144.556-.621,1.04-.931,1.454-.931.218,0,.381.06.49.18.109.131.163.272.163.425,0,.163-.033.425-.098.784-.022.12-.06.403-.114.85ZM176.057,253.825c-.719,0-1.079-.289-1.079-.866,0-.251.087-.452.261-.605.185-.142.387-.212.605-.212.327,0,.594.142.801.425.196.283.294.616.294.997,0,.763-.289,1.405-.866,1.928-.567.512-.986.768-1.258.768-.098,0-.147-.054-.147-.163,0-.065.049-.12.147-.163.872-.458,1.307-1.019,1.307-1.683,0-.065-.005-.131-.016-.196s-.027-.142-.049-.229ZM183.999,250.802c-.174.73-.261,1.286-.261,1.667,0,.229.065.436.196.621.131.174.305.261.523.261.327,0,.665-.131,1.013-.392.36-.261.665-.583.915-.964.12-.185.229-.278.327-.278s.147.049.147.147c0,.261-.294.648-.882,1.16-.588.501-1.198.752-1.83.752-.49,0-.877-.18-1.16-.539-.272-.36-.409-.773-.409-1.242,0-1.013.458-2.141,1.373-3.383.926-1.231,1.83-1.847,2.713-1.847.305,0,.561.109.768.327.207.218.31.458.31.719,0,.523-.289,1.057-.866,1.601-.577.534-1.536.997-2.876,1.389ZM184.113,250.442c.806-.36,1.476-.812,2.01-1.356.545-.556.817-1.062.817-1.52,0-.098-.038-.196-.114-.294-.076-.098-.185-.147-.327-.147-.338,0-.73.229-1.177.686-.447.468-.85,1.345-1.209,2.631ZM191.385,247.975c-.251.142-.43.212-.539.212-.207,0-.458-.142-.752-.425-.261-.261-.468-.392-.621-.392-.12,0-.18.044-.18.131,0,.076.033.174.098.294.153.24.229.419.229.539s-.06.245-.18.376c-.109.131-.251.196-.425.196s-.31-.065-.409-.196c-.109-.12-.163-.261-.163-.425,0-.36.153-.675.458-.948.294-.272.605-.409.931-.409.207,0,.458.076.752.229.414.218.746.327.997.327.153,0,.289-.114.409-.343.131-.207.234-.31.31-.31.054,0,.109.022.163.065.054.044.082.093.082.147,0,.131-.163.343-.49.637-.36.327-.686.942-.98,1.847-.305.904-.458,1.683-.458,2.337,0,.414.044.724.131.931.098.218.24.327.425.327.283,0,.681-.223,1.193-.67.501-.447.921-.997,1.258-1.65.338-.665.507-1.226.507-1.683,0-.251-.114-.675-.343-1.275-.087-.207-.131-.387-.131-.539,0-.12.054-.24.163-.36.098-.109.223-.163.376-.163.261,0,.447.142.556.425.12.272.18.583.18.931,0,.675-.256,1.531-.768,2.566-.501,1.035-1.089,1.814-1.765,2.337-.675.512-1.296.768-1.863.768-.381,0-.675-.114-.882-.343-.207-.218-.31-.49-.31-.817,0-.447.142-1.019.425-1.716.283-.697.621-1.351,1.013-1.961.283-.436.485-.768.605-.997ZM196.811,250.802c-.174.73-.261,1.286-.261,1.667,0,.229.065.436.196.621.131.174.305.261.523.261.327,0,.665-.131,1.013-.392.36-.261.665-.583.915-.964.12-.185.229-.278.327-.278s.147.049.147.147c0,.261-.294.648-.882,1.16-.588.501-1.198.752-1.83.752-.49,0-.877-.18-1.16-.539-.272-.36-.409-.773-.409-1.242,0-1.013.458-2.141,1.373-3.383.926-1.231,1.83-1.847,2.713-1.847.305,0,.561.109.768.327.207.218.31.458.31.719,0,.523-.289,1.057-.866,1.601-.577.534-1.536.997-2.876,1.389ZM196.925,250.442c.806-.36,1.476-.812,2.01-1.356.545-.556.817-1.062.817-1.52,0-.098-.038-.196-.114-.294-.076-.098-.185-.147-.327-.147-.338,0-.73.229-1.177.686-.447.468-.85,1.345-1.209,2.631ZM203.87,249.037c.447-.752.872-1.313,1.275-1.683.403-.37.779-.556,1.128-.556.229,0,.425.065.588.196.153.142.229.327.229.556,0,.185-.06.365-.18.539-.131.163-.294.245-.49.245-.338,0-.55-.153-.637-.458-.054-.207-.125-.31-.212-.31-.163,0-.441.261-.833.784-.381.523-.774,1.182-1.177,1.977l-1.111,3.448h-.98c.022-.12.174-.616.458-1.487.773-2.898,1.16-4.488,1.16-4.772,0-.098-.038-.147-.114-.147-.098,0-.289.136-.572.409s-.528.561-.735.866c-.163.24-.294.36-.392.36-.087,0-.131-.044-.131-.131,0-.131.278-.512.833-1.144.556-.621,1.04-.931,1.454-.931.218,0,.381.06.49.18.109.131.163.272.163.425,0,.163-.033.425-.098.784-.022.12-.06.403-.114.85ZM211.012,252.665c.403-.599.774-1.313,1.111-2.141.349-.817.523-1.449.523-1.896,0-.261-.049-.55-.147-.866-.044-.174-.065-.294-.065-.36,0-.403.163-.605.49-.605.131,0,.245.06.343.18.087.12.131.261.131.425,0,.436-.153,1.106-.458,2.01-.305.915-.806,1.999-1.503,3.252-.697,1.242-1.405,2.288-2.124,3.138-.708.839-1.286,1.394-1.732,1.667-.436.272-.806.409-1.111.409-.294,0-.539-.082-.735-.245-.196-.174-.294-.409-.294-.703,0-.207.06-.387.18-.539.12-.153.278-.229.474-.229.349,0,.528.234.539.703,0,.283.109.425.327.425.621,0,1.689-1.084,3.203-3.252-.142-1.405-.305-2.734-.49-3.987-.196-1.253-.338-1.977-.425-2.173-.087-.196-.191-.294-.31-.294-.251,0-.561.409-.931,1.226-.163.36-.3.539-.409.539-.087,0-.131-.044-.131-.131,0-.076.033-.18.098-.31l.441-.866c.153-.305.31-.55.474-.735.153-.196.311-.338.474-.425.174-.087.327-.131.458-.131.327,0,.567.218.719.654.153.436.338,1.465.556,3.089.153,1.133.261,1.857.327,2.173ZM217.466,247.86c-.229.12-.403.18-.523.18-.087,0-.294-.114-.621-.343-.414-.305-.752-.458-1.013-.458-.12,0-.212.016-.278.049-.054.033-.082.082-.082.147s.082.136.245.212c.229.109.343.294.343.556,0,.142-.054.278-.163.409-.098.131-.245.196-.441.196-.207,0-.387-.071-.539-.212-.142-.142-.212-.305-.212-.49,0-.327.158-.626.474-.899.316-.272.703-.409,1.16-.409.338,0,.817.158,1.438.474.131.076.234.114.31.114.142,0,.3-.12.474-.36.131-.153.24-.229.327-.229.087,0,.131.044.131.131,0,.076-.065.191-.196.343-.174.207-.463.621-.866,1.242-.392.621-.681,1.182-.866,1.683-.196.501-.294.942-.294,1.324,0,.36.093.697.278,1.013.185.327.452.49.801.49.577,0,1.209-.398,1.896-1.193.131-.163.212-.256.245-.278-.011-.185-.016-.316-.016-.392,0-1.187.18-2.195.539-3.023.36-.828.763-1.242,1.209-1.242.218,0,.376.071.474.212.109.142.163.354.163.637,0,.392-.125.899-.376,1.52-.251.632-.605,1.215-1.062,1.749.142.61.338,1.079.588,1.405.24.316.49.474.752.474.468,0,.959-.387,1.471-1.16.512-.773.768-1.574.768-2.402,0-.261-.054-.643-.163-1.144-.065-.327-.098-.539-.098-.637,0-.153.049-.278.147-.376.098-.098.207-.147.327-.147.381,0,.572.245.572.735,0,.567-.169,1.416-.507,2.549-.349,1.133-.812,1.983-1.389,2.549-.588.567-1.171.85-1.749.85-.458,0-.833-.142-1.128-.425-.305-.283-.479-.67-.523-1.16-.512.556-1.008.975-1.487,1.258-.479.283-.948.425-1.405.425-.403,0-.724-.131-.964-.392-.229-.261-.343-.588-.343-.98,0-1.046.724-2.571,2.173-4.576ZM220.294,250.557c.349-.458.605-.893.768-1.307.174-.425.261-.823.261-1.193,0-.218-.027-.381-.082-.49s-.136-.163-.245-.163c-.12,0-.294.174-.523.523-.218.349-.327.801-.327,1.356,0,.403.049.828.147,1.275ZM227.451,249.331c.795-1.002,1.422-1.694,1.879-2.075.458-.381.861-.572,1.209-.572.272,0,.49.087.654.261.163.163.245.37.245.621,0,.447-.267,1.422-.801,2.925-.49,1.384-.735,2.212-.735,2.484,0,.174.076.261.229.261s.376-.136.67-.409c.305-.272.588-.583.85-.931.076-.12.147-.18.212-.18.098,0,.147.06.147.18,0,.163-.283.523-.85,1.079-.567.556-1.106.833-1.618.833-.523,0-.784-.191-.784-.572,0-.272.082-.616.245-1.03.261-.654.556-1.493.882-2.517.327-1.013.49-1.672.49-1.977,0-.12-.022-.207-.065-.261-.044-.065-.114-.098-.212-.098-.24,0-.626.234-1.16.703-.545.468-.991,1.024-1.34,1.667-.349.632-.697,1.52-1.046,2.664-.229.708-.365,1.117-.409,1.226s-.098.163-.163.163c-.163,0-.354-.027-.572-.082-.218-.054-.327-.103-.327-.147,0-.054.016-.114.049-.18.054-.153.447-1.362,1.177-3.628l1.144-3.546.588-2.075c.065-.196.098-.36.098-.49,0-.174-.289-.316-.866-.425-.196-.044-.294-.114-.294-.212s.103-.147.31-.147h1.389c.458.011.697.022.719.033.033.022.049.049.049.082l-.033.098c-.011.044-.022.103-.033.18-.142.632-.784,2.664-1.928,6.095ZM234.069,250.802c-.174.73-.261,1.286-.261,1.667,0,.229.065.436.196.621.131.174.31.261.539.261.316,0,.654-.131,1.013-.392.36-.261.659-.583.899-.964.12-.185.234-.278.343-.278.098,0,.147.049.147.147,0,.261-.294.648-.882,1.16-.588.501-1.204.752-1.847.752-.49,0-.872-.18-1.144-.539-.283-.36-.425-.773-.425-1.242,0-1.013.463-2.141,1.389-3.383.926-1.231,1.825-1.847,2.696-1.847.316,0,.572.109.768.327.207.218.31.458.31.719,0,.523-.289,1.057-.866,1.601-.577.534-1.536.997-2.876,1.389ZM234.184,250.442c.806-.36,1.482-.812,2.026-1.356.534-.556.801-1.062.801-1.52,0-.098-.038-.196-.114-.294s-.18-.147-.31-.147c-.349,0-.746.229-1.193.686-.447.468-.85,1.345-1.209,2.631ZM241.129,249.037c.458-.752.888-1.313,1.291-1.683.392-.37.763-.556,1.111-.556.24,0,.436.065.588.196.163.142.245.327.245.556,0,.185-.065.365-.196.539-.12.163-.278.245-.474.245-.349,0-.561-.153-.637-.458-.054-.207-.131-.31-.229-.31-.163,0-.436.261-.817.784-.392.523-.784,1.182-1.177,1.977l-1.128,3.448h-.98c.022-.12.18-.616.474-1.487.774-2.898,1.16-4.488,1.16-4.772,0-.098-.044-.147-.131-.147-.098,0-.289.136-.572.409-.283.272-.528.561-.735.866-.163.24-.289.36-.376.36-.098,0-.147-.044-.147-.131,0-.131.278-.512.833-1.144.556-.621,1.04-.931,1.454-.931.218,0,.381.06.49.18.109.131.163.272.163.425,0,.163-.033.425-.098.784-.022.12-.06.403-.114.85ZM245.492,250.802c-.174.73-.261,1.286-.261,1.667,0,.229.065.436.196.621.131.174.31.261.539.261.316,0,.654-.131,1.013-.392.36-.261.659-.583.899-.964.12-.185.234-.278.343-.278.098,0,.147.049.147.147,0,.261-.294.648-.882,1.16-.588.501-1.204.752-1.847.752-.49,0-.872-.18-1.144-.539-.283-.36-.425-.773-.425-1.242,0-1.013.463-2.141,1.389-3.383.926-1.231,1.825-1.847,2.696-1.847.316,0,.572.109.768.327.207.218.31.458.31.719,0,.523-.289,1.057-.866,1.601-.577.534-1.536.997-2.876,1.389ZM245.607,250.442c.806-.36,1.482-.812,2.026-1.356.534-.556.801-1.062.801-1.52,0-.098-.038-.196-.114-.294-.076-.098-.18-.147-.31-.147-.349,0-.746.229-1.193.686-.447.468-.85,1.345-1.209,2.631Z" fill="#fd5d9d"/>
  <path d="M158.164,326.18c-20.65,0-39.738-10.871-56.759-32.316H34.115c-2.198,0-3.979-1.782-3.979-3.979v-69.645C5.246,199.043.599,177.155.067,165.871c-.968-20.523,8.512-39.972,28.179-57.83l-.162-69.575c-.002-1.057.416-2.071,1.163-2.82.747-.748,1.76-1.169,2.817-1.169h66.154C107.604,22.997,130.074,0,159.383,0c21.344,0,40.944,11.599,58.279,34.478h65.861c2.197,0,3.979,1.782,3.979,3.979v66.684c11.212,9.121,28.544,27.148,30.426,52.496,1.633,22.005-8.604,43.412-30.426,63.645v68.603c0,2.197-1.782,3.979-3.979,3.979h-66.306c-9.073,10.797-30.723,32.316-59.054,32.316ZM38.094,285.904h65.251c1.234,0,2.398.572,3.151,1.55,15.74,20.415,33.124,30.767,51.668,30.767,26.264,0,46.573-21.568,54.087-30.842.756-.933,1.892-1.475,3.092-1.475h64.201v-66.374c0-1.123.476-2.194,1.308-2.949,20.811-18.854,30.614-38.487,29.14-58.356-.747-10.077-5.499-29.717-28.919-48.035-.965-.754-1.528-1.91-1.528-3.134V42.437h-63.876c-1.265,0-2.455-.602-3.205-1.621-16.049-21.802-33.908-32.857-53.08-32.857-27.182,0-48.311,23.052-56.134,32.963-.754.956-1.906,1.514-3.124,1.514H36.053l.157,67.37c.002,1.144-.487,2.234-1.345,2.991-18.685,16.51-27.718,34.241-26.848,52.698.48,10.184,4.838,30.198,28.63,49.815.917.756,1.448,1.882,1.448,3.07v67.522Z" fill="#6ac674"/>
  <path d="M158.158,311.01c-17.346,0-33.838-10.926-49.032-32.484h-62.662c-.542,0-.98-.438-.98-.98v-64.799c-3.671-2.583-29.004-21.345-30.243-47.614-.813-17.258,8.728-34.09,28.361-50.035l-.149-64.287c0-.261.103-.511.286-.695.184-.185.434-.288.694-.288h61.441c2.796-4.072,24.641-34.474,53.248-34.657.087,0,.177,0,.264,0,17.922,0,34.854,11.657,50.34,34.657h61.446c.541,0,.98.439.98.98v62.095c3.749,2.461,28.691,19.783,30.629,45.891,1.377,18.563-8.927,37.259-30.629,55.575v63.177c0,.542-.439.98-.98.98h-61.506c-2.724,3.889-23.465,32.128-50.979,32.48-.176.002-.354.004-.53.004ZM47.444,276.564h62.191c.32,0,.62.156.803.418,14.886,21.279,30.94,32.066,47.722,32.066.166,0,.329-.002.495-.004,28.359-.357,49.47-31.725,49.68-32.041.182-.274.488-.439.817-.439h61.04v-62.652c0-.29.128-.564.351-.751,21.425-17.979,31.614-36.218,30.284-54.211-2.002-27.087-29.886-44.504-30.167-44.677-.291-.179-.468-.495-.468-.836v-61.649h-60.988c-.327,0-.633-.164-.815-.436-15.178-22.708-31.665-34.222-49.003-34.222-.082,0-.162,0-.243,0-29.448.183-51.704,33.871-51.925,34.211-.181.278-.49.446-.822.446h-60.979l.147,63.773c0,.297-.133.579-.365.766-19.362,15.615-28.783,32.001-28,48.703,1.275,27.184,29.521,46.195,29.806,46.385.274.182.439.488.439.817v64.333Z" fill="#6ac674"/>
  <path d="M170.129,70.375c.362.091.391-.078.599-.237.659-.504,1.355-1.27,2.045-1.779,2.758-2.034,6.059-3.748,9.536-3.948.672,3.032.044,6.471-.998,9.377-.158.44-1.51,3.158-1.381,3.28l4.199-.701c2.891-.15,5.802.301,8.462,1.429.236.225-.907,2.372-1.142,2.783-1.008,1.76-2.921,3.763-4.467,5.096-.861.742-1.968,1.329-2.749,2.149,4.063,1.241,8.485,3.317,10.748,7.03-1.82,1.888-4.575,3.03-7.108,3.663-10.646,2.663-24.932-1.416-28.927-12.538-2.745-7.645-1.321-19.644,4.124-25.888.36-.413,2.525-2.481,2.872-2.385,2.944,3.481,4.233,8.158,4.187,12.669" fill="#fd5d9d"/>
  <path d="M150.527,122.247l2.868-3.226c3.644-4.834,5.991-10.583,4.482-16.673-.941-3.794-3.566-6.722-6.155-9.501,2.391.008,4.62-.947,6.775-1.876,7.609,4.688,9.093,15.414,4.417,22.747-2.706,4.244-7.617,7.153-12.387,8.529" fill="#6ac674"/>
  <path d="M120.885,86.869c-.096-.443.241-.568.478-.836,1.829-2.077,4.756-3.476,7.524-3.711,1.383-.118,2.917.105,4.316.013,4.862-.32,8.946-4.022,13.976-2.038,4.149,1.636,4.857,6.295,8.28,8.214.65.365,1.462.332,1.998.869-3.557,2.659-8.399,2.868-12.428,1.194-2.835-1.177-4.564-3.623-7.167-5.024-4.072-2.192-9.432-1.943-13.63-.234l-3.347,1.553Z" fill="#6ac674"/>
  <path d="M156.258,109.096c-.269.354-2.742-.976-3.179-1.234-5.203-3.066-5.791-8.118-7.694-13.342l-1.313-2.63c8.311,1.058,13.846,8.989,12.186,17.206" fill="#fd5d9d"/>
</svg>